<svg height="600" width="1000" xmlns="http://www.w3.org/2000/svg"><path d="M0 0h1000v600H0z" fill="red"/><path d="m526.465 180.758 3.447-66.422a.589.589 0 0 0-.499-.614.59.59 0 0 0-.668.453l-17.032 64.02a7.504 7.504 0 1 0 14.752 2.564zm18.336 5.605 13.86-65.052a.591.591 0 0 0-1.126-.345l-26.898 60.54a7.505 7.505 0 1 0 14.164 4.856zm17.224 8.422 23.928-62.058a.59.59 0 0 0-1.058-.517l-36.093 55.55a7.504 7.504 0 0 0 2.956 10.654 7.503 7.503 0 0 0 10.267-3.629zm15.687 11.012 33.341-57.55a.59.59 0 0 0-.965-.676L565.75 196.79a7.505 7.505 0 1 0 11.963 9.007zm13.774 13.315 41.893-51.66a.587.587 0 0 0-.04-.79.589.589 0 0 0-.807-.028l-51.46 41.719a7.503 7.503 0 0 0-.472 11.047 7.501 7.501 0 0 0 10.886-.288zm11.537 15.294 49.422-44.51a.59.59 0 0 0-.71-.94L594.41 222.16a7.506 7.506 0 1 0 8.298 12.49c.109-.08.216-.16.316-.243zm9.007 16.918 55.776-36.23a.59.59 0 0 0-.554-1.038L605.44 237.88a7.505 7.505 0 1 0 6.591 13.444zm6.236 18.13 60.785-26.997a.592.592 0 0 0-.383-1.114l-64.795 13.796a7.504 7.504 0 1 0 4.393 14.315zm3.302 18.886 64.277-17.09a.588.588 0 0 0 .433-.663.593.593 0 0 0-.637-.499l-66.157 3.425a7.505 7.505 0 1 0 2.084 14.828zm.32 19.153 66.15-6.906a.59.59 0 0 0-.02-1.177l-65.887-6.887a7.506 7.506 0 1 0-.642 14.982c.136 0 .27-.005.399-.012zm-2.646 18.973 66.42 3.445a.592.592 0 0 0 .162-1.167l-64.018-17.032a7.505 7.505 0 1 0-2.564 14.754zm-5.605 18.335 65.051 13.86a.59.59 0 0 0 .343-1.126l-60.539-26.9a7.505 7.505 0 1 0-4.855 14.165zm-8.422 17.224 62.057 23.927a.59.59 0 0 0 .741-.28.592.592 0 0 0-.224-.778l-55.55-36.093a7.505 7.505 0 1 0-7.024 13.224zm-11.012 15.686 57.55 33.342a.59.59 0 0 0 .676-.964l-49.22-44.34a7.504 7.504 0 0 0-10.986 1.252 7.505 7.505 0 0 0 1.98 10.71zm-13.315 13.775 51.66 41.893c.23.19.574.177.79-.041a.588.588 0 0 0 .027-.806l-41.718-51.46a7.504 7.504 0 1 0-10.759 10.415zm-15.295 11.537 44.51 49.421a.591.591 0 0 0 .94-.708l-33.203-57.328a7.505 7.505 0 1 0-12.248 8.615zm-16.917 9.006 36.23 55.779a.591.591 0 0 0 1.039-.555l-23.825-61.814a7.506 7.506 0 0 0-10.363-3.855 7.506 7.506 0 0 0-3.08 10.445zm-18.13 6.237 26.997 60.786a.592.592 0 0 0 .723.324.593.593 0 0 0 .39-.708l-13.796-64.795a7.506 7.506 0 1 0-14.448 4.016c.043.131.088.257.134.377zm-18.887 3.301 17.092 64.278a.59.59 0 0 0 1.16-.204l-3.425-66.157a7.504 7.504 0 0 0-8.65-6.886 7.504 7.504 0 0 0-6.177 8.97zm-19.153.32 6.906 66.151a.59.59 0 0 0 1.178-.02l6.887-65.888a7.504 7.504 0 1 0-14.97-.242zm-18.971-2.646-3.447 66.421a.59.59 0 0 0 1.167.162l17.031-64.019a7.504 7.504 0 0 0-6.122-9.207 7.503 7.503 0 0 0-8.63 6.643zm-18.336-5.605-13.86 65.053a.59.59 0 0 0 1.126.343l26.898-60.54a7.506 7.506 0 0 0-4.596-10.058 7.505 7.505 0 0 0-9.568 5.202zm-17.224-8.422-23.927 62.06c-.11.276.008.6.282.74.28.142.618.041.776-.225l36.092-55.55a7.505 7.505 0 1 0-13.223-7.025zm-15.686-11.01-33.341 57.55a.59.59 0 0 0 .963.675l44.34-49.22a7.504 7.504 0 1 0-11.962-9.006zm-13.775-13.316-41.893 51.66a.587.587 0 0 0 .04.79.59.59 0 0 0 .807.028l51.46-41.719a7.504 7.504 0 0 0 .472-11.047 7.504 7.504 0 0 0-10.886.288zm-11.537-15.296-49.423 44.51a.591.591 0 0 0 .71.94l57.327-33.201a7.505 7.505 0 1 0-8.614-12.248zm-9.007-16.916-55.777 36.23a.59.59 0 0 0 .555 1.038l61.813-23.824a7.504 7.504 0 0 0 3.855-10.363 7.504 7.504 0 0 0-10.446-3.081zm-6.236-18.13-60.785 26.997a.593.593 0 0 0 .384 1.114l64.794-13.797a7.505 7.505 0 1 0-4.393-14.315zm-3.302-18.886-64.277 17.09a.59.59 0 0 0 .204 1.16l66.157-3.424a7.505 7.505 0 1 0-2.085-14.826zm-.32-19.154-66.15 6.905a.59.59 0 0 0 .02 1.179l65.887 6.887a7.505 7.505 0 1 0 .243-14.97zm2.646-18.972-66.42-3.446a.59.59 0 0 0-.162 1.166l64.019 17.033a7.503 7.503 0 0 0 9.208-6.122 7.506 7.506 0 0 0-6.645-8.631zm5.605-18.336-65.051-13.86a.59.59 0 0 0-.343 1.126l60.539 26.9a7.505 7.505 0 1 0 4.855-14.165zm8.422-17.223-62.057-23.929a.592.592 0 0 0-.517 1.059l55.55 36.093a7.504 7.504 0 0 0 10.654-2.956 7.504 7.504 0 0 0-3.63-10.267zm11.012-15.686-57.55-33.343a.59.59 0 0 0-.776.164.589.589 0 0 0 .1.8l49.22 44.34a7.504 7.504 0 0 0 10.986-1.252 7.505 7.505 0 0 0-1.98-10.709zm13.315-13.776-51.66-41.892a.588.588 0 0 0-.79.04.589.589 0 0 0-.027.807l41.718 51.46a7.501 7.501 0 0 0 11.047.472 7.503 7.503 0 0 0-.288-10.887zm15.296-11.537-44.511-49.422a.591.591 0 0 0-.939.711l33.202 57.325a7.505 7.505 0 1 0 12.248-8.614zm16.917-9.007-36.23-55.777a.59.59 0 0 0-1.04.555l23.825 61.814a7.502 7.502 0 0 0 10.363 3.854 7.502 7.502 0 0 0 3.082-10.446zm18.13-6.235-26.998-60.786a.59.59 0 0 0-1.113.384l13.796 64.794a7.503 7.503 0 0 0 9.628 5.438 7.506 7.506 0 0 0 4.686-9.83zm18.887-3.303-17.093-64.277a.588.588 0 0 0-.662-.432.59.59 0 0 0-.497.637l3.423 66.156a7.505 7.505 0 1 0 14.828-2.085zm19.152-.319-6.906-66.152a.59.59 0 0 0-1.178.022l-6.887 65.888a7.505 7.505 0 1 0 14.97.243zM500 186.068c62.922 0 113.932 51.01 113.932 113.933 0 62.92-51.01 113.931-113.932 113.931s-113.931-51.01-113.931-113.931c0-62.924 51.009-113.933 113.931-113.933zm0 13.658c55.38 0 100.274 44.894 100.274 100.275 0 55.379-44.895 100.273-100.274 100.273-55.38 0-100.274-44.894-100.274-100.273 0-55.38 44.894-100.275 100.274-100.275zm-83.727 130.37c10.252-21.443 24.421-40.39 40.804-56.329a214.222 214.222 0 0 1 7.607 5.232c-17.205 16.447-32.2 36.798-43.511 61.734a89.28 89.28 0 0 1-4.9-10.637zm90.8-51.757a195.35 195.35 0 0 1 6.874 6.041 199.332 199.332 0 0 1 7.315-5.72c-2.25-2.04-4.54-4.02-6.86-5.946a213.196 213.196 0 0 0-7.329 5.625zm-14.57-11.12a205.288 205.288 0 0 1 7.497 5.46 205.288 205.288 0 0 1 7.496-5.46c-2.47-1.885-4.97-3.709-7.496-5.469a213.058 213.058 0 0 0-7.496 5.47zm.673 23.292a194.21 194.21 0 0 1 6.824 6.465 194.679 194.679 0 0 1 6.824-6.465A211.198 211.198 0 0 0 500 284.27a211.769 211.769 0 0 0-6.824 6.242zm-14.437-11.852c2.47 1.84 4.909 3.748 7.314 5.721a196.636 196.636 0 0 1 6.875-6.04 213.686 213.686 0 0 0-7.33-5.626 211.387 211.387 0 0 0-6.86 5.945zm44.856-21.564a215.41 215.41 0 0 0-7.536-5.498c-2.89 1.65-5.76 3.38-8.603 5.189a208.707 208.707 0 0 1 7.704 5.36 212.784 212.784 0 0 1 8.435-5.05zm13.272 11.005a214.721 214.721 0 0 0-6.788-5.856 211.892 211.892 0 0 0-8.066 5.135 196.826 196.826 0 0 1 6.948 5.809 211.78 211.78 0 0 1 7.906-5.088zm-45.901-21.193A211.96 211.96 0 0 1 500 241.44a211.863 211.863 0 0 1 9.035 5.467 216.538 216.538 0 0 0-9.035 5.162 217.1 217.1 0 0 0-9.034-5.162zm-14.56 10.188a215.218 215.218 0 0 1 7.535-5.498c2.89 1.65 5.76 3.38 8.603 5.189a206.816 206.816 0 0 0-7.703 5.36 213.582 213.582 0 0 0-8.434-5.05zM463.133 268.1a214.73 214.73 0 0 1 6.789-5.856c2.71 1.64 5.402 3.354 8.066 5.135a196.657 196.657 0 0 0-6.947 5.809 211.827 211.827 0 0 0-7.908-5.088zM421.3 254.997c9.275 3.717 18.523 8.28 27.553 13.632-13.9 13.248-26.365 29.04-36.622 47.73a89.972 89.972 0 0 1-1.889-18.38c0-15.575 3.972-30.221 10.958-42.982zm7.62-11.663c10.933 3.533 21.935 8.28 32.7 14.14a196.635 196.635 0 0 0-6.86 5.755c-9.829-5.43-19.928-10.019-30.114-13.847a89.407 89.407 0 0 1 4.275-6.048zm9.56-10.573c12.359 3.241 24.922 8.083 37.233 14.385a208.084 208.084 0 0 0-7.704 5.41c-11.39-5.832-23.088-10.579-34.814-14.367a90.428 90.428 0 0 1 5.285-5.428zm13.943-10.785c.263.097.54.194.833.293.328.083.656.17.985.252 12.585 3.277 25.386 8.215 37.921 14.666a215.49 215.49 0 0 0-9.461 5.479c-12.13-5.907-24.564-10.62-36.979-14.28-.107-.03-.799-.27-1.579-.54a90.246 90.246 0 0 1 8.28-5.87zm87.512-4.288c-.483.155-.835.27-.94.312-13.096 3.816-26.223 8.795-38.995 15.115-12.53-6.2-25.401-11.11-38.25-14.898l-.745-.217c-.35-.09-.67-.191-.966-.298 12.033-6.002 25.601-9.384 39.962-9.384 14.349 0 27.91 3.375 39.934 9.37zm16.006 10.227c-.333.1-.642.187-.902.25-12.667 3.689-25.362 8.473-37.74 14.5a215.589 215.589 0 0 0-9.46-5.478c12.86-6.62 26.004-11.647 38.905-14.918.318-.05.636-.126.95-.22a89.797 89.797 0 0 1 8.247 5.866zm10.865 10.274c-11.727 3.788-23.424 8.535-34.815 14.367a207.126 207.126 0 0 0-7.703-5.41c12.31-6.302 24.873-11.144 37.232-14.385a90.59 90.59 0 0 1 5.286 5.428zm8.549 11.193c-10.186 3.828-20.286 8.416-30.115 13.847a197.717 197.717 0 0 0-6.86-5.755c10.764-5.86 21.769-10.607 32.7-14.14a89.08 89.08 0 0 1 4.275 6.048zm12.413 66.977c-10.254-18.69-22.72-34.482-36.62-47.73 9.029-5.352 18.277-9.915 27.552-13.632 6.983 12.762 10.958 27.407 10.958 42.982 0 6.3-.651 12.448-1.89 18.38zm-8.94 24.374c-11.313-24.936-26.307-45.287-43.511-61.734a217.263 217.263 0 0 1 7.604-5.232c16.386 15.938 30.555 34.885 40.808 56.329a89.235 89.235 0 0 1-4.902 10.637zm-13.967 19.145c-10.921-28.152-26.311-50.936-44.364-69.181a212.981 212.981 0 0 1 7.212-5.956c18.684 18.373 34.42 40.69 44.655 66.171a90.075 90.075 0 0 1-7.503 8.966zm-16.924 13.877-1.193-3.202c-9.901-26.744-23.788-48.75-40.163-66.706a212.907 212.907 0 0 1 6.834-6.755c18.75 19.572 34.159 43.264 43.427 70.224a90.065 90.065 0 0 1-8.905 6.439zm-86.749 5.07 1.147-3.584c8.26-24.262 21.492-45.887 37.665-64.26 16.173 18.373 29.406 39.998 37.665 64.26l1.175 3.57c-11.75 5.657-24.925 8.826-38.84 8.826-13.903 0-27.068-3.164-38.812-8.813zm-18.03-11.51c9.27-26.96 24.676-50.651 43.427-70.223a212.535 212.535 0 0 1 6.834 6.755c-16.375 17.956-30.261 39.962-40.163 66.706l-1.189 3.204a89.893 89.893 0 0 1-8.908-6.441zm-15.522-16.403c10.235-25.482 25.972-47.798 44.656-66.171a214.26 214.26 0 0 1 7.212 5.956c-18.053 18.245-33.443 41.03-44.365 69.181a90.28 90.28 0 0 1-7.503-8.966" fill="#ffed00" fill-rule="evenodd"/></svg>