<svg id="UNESCO_LogoBloc_HOR_blue" xmlns="http://www.w3.org/2000/svg" xmlns:xlink="http://www.w3.org/1999/xlink" viewBox="0 0 299.34 63.44"><defs><style>.cls-1{fill:none;}.cls-2{fill:#fff;}.cls-3{clip-path:url(#clip-path);}.cls-4{fill:#0069b4;}</style><clipPath id="clip-path" transform="translate(0 0)"><rect class="cls-1" width="299.34" height="63.44"/></clipPath></defs><rect class="cls-2" width="299.34" height="63.44"/><g class="cls-3"><path class="cls-4" d="M248.49,38.45a6.89,6.89,0,0,1-4.91,2,7,7,0,1,1,4.89-11.91l.17.17L251.81,22l-.12-.09a14.12,14.12,0,1,0,0,23.08l.12-.09-3.13-6.64Z" transform="translate(0 0)"/><path class="cls-4" d="M268.5,19.38a14.1,14.1,0,1,0,14.1,14.1,14.11,14.11,0,0,0-14.1-14.1m0,21.11a6.95,6.95,0,1,1,6.94-7,7,7,0,0,1-6.94,7" transform="translate(0 0)"/><path class="cls-4" d="M114.26,20.22V34.8a5.56,5.56,0,0,0,1.49,4.27,5,5,0,0,0,3.55,1.24,5.33,5.33,0,0,0,3.62-1.24,5.77,5.77,0,0,0,1.42-4.27V20.22h8.53V35.63c0,3-.3,5.87-3,8.47-3,3-7.47,3.44-10.61,3.44s-7.64-.47-10.67-3.44c-2.43-2.36-2.9-5-2.9-7.94V20.22Z" transform="translate(0 0)"/><path class="cls-4" d="M139.51,20.22H148v3.14a9.65,9.65,0,0,1,8.18-3.85,10.45,10.45,0,0,1,7.59,2.67c2.48,2.49,2.66,5.63,2.66,7.76V46.65h-8.53V33.08c0-1.72-.06-3.91-1.42-5.27a4.5,4.5,0,0,0-3.26-1.19,4.61,4.61,0,0,0-3.56,1.43,6.75,6.75,0,0,0-1.66,5V46.65h-8.53Z" transform="translate(0 0)"/><path class="cls-4" d="M200.19,34.92H180.46a7.19,7.19,0,0,0,1.6,4.5,5.72,5.72,0,0,0,4.38,1.66,7,7,0,0,0,3.44-.77,5.22,5.22,0,0,0,1.84-2.19l8.06.83a11.87,11.87,0,0,1-5.1,6.64,15.7,15.7,0,0,1-8.36,1.95c-4,0-7.46-.71-10.54-3.79a14.17,14.17,0,0,1-4-10.19,15.06,15.06,0,0,1,4-10.43A13.85,13.85,0,0,1,186,19.33c3,0,7.23.54,10.49,4s3.73,7.47,3.73,10.73Zm-7.88-5.1a6.84,6.84,0,0,0-1.72-3.08,6.27,6.27,0,0,0-8.36.24,6,6,0,0,0-1.48,2.84Z" transform="translate(0 0)"/><path class="cls-4" d="M221.7,27A9.69,9.69,0,0,0,217,25.5a3.58,3.58,0,0,0-2.43.77,1.79,1.79,0,0,0-.53,1.18,1.38,1.38,0,0,0,.83,1.19,16.31,16.31,0,0,0,2.54.89l2.26.71a11.08,11.08,0,0,1,4.38,2.31,6.31,6.31,0,0,1,2.08,5,9.63,9.63,0,0,1-2.73,6.93c-2.61,2.61-5.81,3-8.59,3A15.73,15.73,0,0,1,204,43.75L207.6,38a15,15,0,0,0,2.9,2,8,8,0,0,0,3.56.83,4.71,4.71,0,0,0,2.66-.6,2.21,2.21,0,0,0,.89-1.71,1.74,1.74,0,0,0-1-1.54,10.74,10.74,0,0,0-2.6-.95l-2.14-.66a10.5,10.5,0,0,1-4.26-2.42,6.53,6.53,0,0,1-1.9-4.81,8.19,8.19,0,0,1,2.55-6.1,11.67,11.67,0,0,1,8-2.67,16.62,16.62,0,0,1,8.77,2.26Z" transform="translate(0 0)"/><rect class="cls-2" x="3.68" y="4.36" width="80.14" height="55.84"/><path class="cls-4" d="M0,63.44H299.34V0H0ZM22.52,18.51,43.17,12.2l20.65,6.31v1.87L43.17,14.07,22.52,20.38Zm3.81,22.92c.39,0,.39-.3.39-.3V24.29H27.8V41.08a1.24,1.24,0,0,1-1.39,1.3,1.33,1.33,0,0,1-1.47-1.3V24.29H26V41s-.08.39.31.39m37.49,3.63H22.52V43.33h41.3ZM31.74,42.38V24.29h.86L33.69,34V24.29h.91V42.38h-.91L32.6,31.5V42.38ZM41,32.25v1H39.83v8.18h1.56v1H38.62V24.29H41v.91H39.83v7.05Zm5.35,9.16c.28,0,.28-.33.28-.33V36.91c0-1.76-1.69-5.59-1.69-7.86V25.59a1.34,1.34,0,0,1,1.43-1.3,1.25,1.25,0,0,1,1.39,1.3v4.06H46.63V25.59s0-.39-.3-.39-.26.39-.26.39v4.07c0,1.34,1.68,5.39,1.69,7.51v3.91a1.32,1.32,0,0,1-1.43,1.3,1.27,1.27,0,0,1-1.39-1.3V36.54h1.13v4.54s0,.31.28.33M53.13,25.2a.38.38,0,0,0-.39.39V41.08a.42.42,0,0,0,.39.35.34.34,0,0,0,.34-.35V36.54h1.08v4.54a1.31,1.31,0,0,1-1.42,1.3,1.27,1.27,0,0,1-1.39-1.3V25.59a1.3,1.3,0,0,1,1.39-1.3,1.35,1.35,0,0,1,1.42,1.3v4.06H53.47V25.59s0-.39-.34-.39m5.41,15.88V25.59a1.35,1.35,0,0,1,1.51-1.3,1.25,1.25,0,0,1,1.43,1.3V41.08A1.35,1.35,0,0,1,60,42.38a1.32,1.32,0,0,1-1.43-1.3m-36-19.58h41.3v1.73H22.52Zm3.35-1.12,17.3-5.28,17.29,5.28h-5L43.17,16.7l-12.3,3.68ZM20.18,46.27H66.07V48H20.18ZM68.32,51H18V49.22h50.3ZM298,62.12H86.84V1.32H298Z" transform="translate(0 0)"/><path class="cls-4" d="M60.44,41.08V25.59a.4.4,0,0,0-.43-.4.39.39,0,0,0-.39.4V41.08s0,.35.43.35.39-.35.39-.35" transform="translate(0 0)"/></g></svg>